<svg width="22" height="22" viewBox="0 0 22 22" fill="none" xmlns="http://www.w3.org/2000/svg">
<path d="M7 12C7.55229 12 8 11.5523 8 11C8 10.4477 7.55229 10 7 10C6.44772 10 6 10.4477 6 11C6 11.5523 6.44772 12 7 12Z" fill="white"/>
<path d="M11 12C11.5523 12 12 11.5523 12 11C12 10.4477 11.5523 10 11 10C10.4477 10 10 10.4477 10 11C10 11.5523 10.4477 12 11 12Z" fill="white"/>
<path d="M16 11C16 11.5523 15.5523 12 15 12C14.4477 12 14 11.5523 14 11C14 10.4477 14.4477 10 15 10C15.5523 10 16 10.4477 16 11Z" fill="white"/>
<path fill-rule="evenodd" clip-rule="evenodd" d="M10.312 0.0215509C12.9863 -0.146046 15.6298 0.668258 17.7462 2.31159C19.8626 3.95493 21.3065 6.31427 21.8066 8.9467C22.2795 11.4356 21.8781 14.0067 20.6783 16.2278L21.5439 19.285C21.6343 19.5975 21.6395 19.9286 21.5589 20.2439C21.4778 20.5609 21.3129 20.8502 21.0816 21.0816C20.8502 21.3129 20.5609 21.4778 20.2439 21.5588C19.9286 21.6395 19.5975 21.6343 19.2849 21.5438L16.2278 20.6783C14.0067 21.8781 11.4356 22.2795 8.94671 21.8066C6.31427 21.3065 3.95493 19.8626 2.31159 17.7462C0.668258 15.6298 -0.146046 12.9863 0.0215508 10.312C0.189148 7.63769 1.32712 5.11654 3.22183 3.22183C5.11655 1.32712 7.63769 0.189148 10.312 0.0215509ZM16.5196 3.8913C14.788 2.54676 12.6251 1.88051 10.4371 2.01763C8.24902 2.15476 6.18627 3.08583 4.63605 4.63605C3.08583 6.18627 2.15476 8.24902 2.01764 10.4371C1.88051 12.6251 2.54676 14.788 3.8913 16.5196C5.23585 18.2512 7.16622 19.4326 9.32003 19.8418C11.4738 20.251 13.703 19.86 15.5889 18.7422C15.8247 18.6024 16.1075 18.5656 16.3712 18.6403L19.5364 19.5364L18.6403 16.3712C18.5656 16.1075 18.6024 15.8247 18.7422 15.5889C19.86 13.703 20.251 11.4738 19.8418 9.32003C19.4326 7.16622 18.2512 5.23585 16.5196 3.8913Z" fill="white"/>
</svg>
